<svg width="36" height="35" viewBox="0 0 36 35" fill="none" xmlns="http://www.w3.org/2000/svg">
<path d="M18 0C8.061 0 0 8.03371 0 17.9424C0 25.87 5.157 32.5954 12.3105 34.9683C13.209 35.1342 13.5 34.578 13.5 34.1055V30.7652C8.493 31.8508 7.4505 28.648 7.4505 28.648C6.6315 26.5742 5.451 26.0225 5.451 26.0225C3.8175 24.9085 5.5755 24.9325 5.5755 24.9325C7.383 25.0581 8.334 26.782 8.334 26.782C9.939 29.5242 12.5445 28.7318 13.572 28.2727C13.7325 27.114 14.199 26.3215 14.715 25.8744C10.7175 25.4184 6.5145 23.8798 6.5145 17.0064C6.5145 15.0462 7.218 13.4463 8.3685 12.1904C8.1825 11.7373 7.566 9.91168 8.544 7.44161C8.544 7.44161 10.056 6.96016 13.4955 9.28071C14.931 8.88299 16.47 8.68412 18 8.67665C19.53 8.68412 21.0705 8.88299 22.509 9.28071C25.9455 6.96016 27.4545 7.44161 27.4545 7.44161C28.434 9.91318 27.8175 11.7388 27.6315 12.1904C28.7865 13.4463 29.484 15.0477 29.484 17.0064C29.484 23.8978 25.2735 25.4154 21.2655 25.8595C21.9105 26.4157 22.5 27.5072 22.5 29.1818V34.1055C22.5 34.5825 22.788 35.1432 23.7015 34.9668C30.849 32.5909 36 25.867 36 17.9424C36 8.03371 27.9405 0 18 0Z" fill="#E0DBE2"/>
</svg>
