<svg width="32" height="33" viewBox="0 0 32 33" fill="none" xmlns="http://www.w3.org/2000/svg">
<path d="M25.3333 0.5H6.66667C2.98533 0.5 0 3.48533 0 7.16667V25.8333C0 29.5147 2.98533 32.5 6.66667 32.5H25.3333C29.016 32.5 32 29.5147 32 25.8333V7.16667C32 3.48533 29.016 0.5 25.3333 0.5ZM10.6667 25.8333H6.66667V11.1667H10.6667V25.8333ZM8.66667 9.476C7.37867 9.476 6.33333 8.42267 6.33333 7.124C6.33333 5.82533 7.37867 4.772 8.66667 4.772C9.95467 4.772 11 5.82533 11 7.124C11 8.42267 9.956 9.476 8.66667 9.476ZM26.6667 25.8333H22.6667V18.3613C22.6667 13.8707 17.3333 14.2107 17.3333 18.3613V25.8333H13.3333V11.1667H17.3333V13.52C19.1947 10.072 26.6667 9.81733 26.6667 16.8213V25.8333Z" fill="#E0DBE2"/>
</svg>
