<svg xmlns="http://www.w3.org/2000/svg" width="16" height="16" fill="none"><circle cx="8" cy="8" r="8" fill="#fff"/><mask id="a" width="16" height="16" x="0" y="0" maskUnits="userSpaceOnUse" style="mask-type:alpha"><circle cx="8.001" cy="7.974" r="7.974" fill="#D9D9D9"/></mask><g mask="url(#a)"><path fill="#fff" d="M12.345 14.556c-.037.027-.078.053-.115.079-.042.026-.078.052-.12.073-.037.021-.068.042-.105.063-.005.005-.01.005-.015.01-.12.073-.246.141-.372.204a1.164 1.164 0 0 1-.115.058s-.005.005-.01.005l-.126.063c-.083.042-.172.078-.256.115-.042.02-.089.036-.13.052-.042.016-.09.037-.131.052l-.131.053h-.005c-.042.015-.09.031-.13.047-.095.031-.194.062-.288.094-.032.01-.069.02-.1.031-.1.031-.199.058-.298.079-.037.01-.073.015-.115.026l-.288.063c-.02.005-.036.005-.057.01l-.1.016c-.046.005-.088.015-.135.02-.021.006-.042.006-.063.011a.463.463 0 0 1-.089.01l-.256.032c-.026.005-.058.005-.084.01h-.005c-.037.005-.073.005-.11.01-.036.006-.073.006-.11.006-.02 0-.047.005-.068.005-.041 0-.078.005-.115.005-.052 0-.099.006-.151.006H7.89a7.877 7.877 0 0 1-5.61-2.458c-.157-.141-.021-.894.612-1.37.794-.601 2.698-.978 2.698-.978s.737-.12 3.471.45c1.6.335 2.819.821 3.498 2.139.142.272.283.69-.214.91Z"/><path fill="#000" d="M9.077 11.45c1.004.205 2.076.424 2.902 1.088.277.225.46.555.612.874.073.156.146.318.204.491.031.115.078.246.052.382a.232.232 0 0 1-.063.11c-.12.12-.25.193-.382.287a7.205 7.205 0 0 1-2.567 1.109c-2.04.444-4.246.099-6.04-.973a7.252 7.252 0 0 1-1.615-1.317c-.052-.063-.052-.168-.052-.236.005-.157.047-.308.1-.45.125-.324.287-.648.564-.873a3.77 3.77 0 0 1 .633-.345 7.761 7.761 0 0 1 2.164-.58c.063-.005.074.084.01.094a9.992 9.992 0 0 0-2.09.664c-.241.12-.497.225-.69.413a2.349 2.349 0 0 0-.42.695c-.067.152-.114.393-.093.513.33.392.716.737 1.134 1.035 2.29 1.6 5.768 1.705 8.204.371.22-.12.434-.256.638-.397.1-.068.204-.125.283-.204.005-.005 0 0 0 .005 0 .006-.006.01-.006.01a.674.674 0 0 0-.041-.23 4.482 4.482 0 0 0-.408-.899c-.257-.413-.69-.674-1.13-.883a8.195 8.195 0 0 0-.946-.356 13.016 13.016 0 0 0-.983-.272c-.084-.02-.058-.14.026-.125Z"/><path fill="#fff" d="M14.081 17.799H.857s.215-2.154 1.03-3.874c.299-.628.398-1.548.989-1.95.606-.414 1.898-.743 2.347-.796.251-.03.194-.052.372-.099.057.157.638 1.694 2.028 2.259 1.198.486 1.909.162 2.019-.377.068-.345-.147-.91-.256-1.092a.411.411 0 0 1-.126-.21l-.042-.172c.094-.021.183-.047.277-.073.047.01.1.005.142.031.439.24 1.762.58 2.452 1.307.272.283.695 1.287.763 1.94.194 1.794 1.229 3.106 1.229 3.106Z"/><path fill="#000" d="M14.154 17.83c-3.921.01-9.427.058-13.291.042a.08.08 0 0 1-.079-.089c.047-.37.11-.732.183-1.098.194-.998.486-1.981.926-2.896.177-.43.266-.879.48-1.297.126-.251.314-.492.565-.633.403-.24.847-.392 1.292-.528.267-.078.538-.151.81-.204.136-.031.272-.026.398-.078.068-.026.198-.105.24-.005.382.988 1.12 1.924 2.15 2.274.533.194 1.458.356 1.73-.298.084-.246.005-.512-.068-.758a1.879 1.879 0 0 0-.157-.36l.016.015a.51.51 0 0 1-.162-.32l-.026-.104a.078.078 0 0 1 .057-.094c.094-.016.188-.047.283-.073.052 0 .135.01.203.047.576.267 1.23.46 1.778.795.309.183.623.397.821.706a4.87 4.87 0 0 1 .67 2.013 6.55 6.55 0 0 0 1.14 2.808l.02.026.01.01.006.005s0-.005.005.01a.218.218 0 0 1 0 .085Zm-.141-.067a.078.078 0 0 0 0 .067c.01.01.005.006.005.006l-.005-.005-.01-.016-.021-.026a7.504 7.504 0 0 1-.8-1.6 6.001 6.001 0 0 1-.335-1.281c-.021-.157-.047-.366-.084-.518a4.747 4.747 0 0 0-.59-1.438 1.51 1.51 0 0 0-.35-.355c-.414-.314-.9-.508-1.381-.696l-.492-.183c-.162-.063-.355-.13-.455-.23h.042a2.83 2.83 0 0 1-.282.078l.057-.094.026.105c.021.094.042.178.115.24l.016.016c.141.256.225.523.267.81.089.497-.225.89-.706.984-.664.13-1.459-.157-2.008-.529-.69-.486-1.187-1.207-1.49-1.987l.094.048c-.047.015-.078.031-.125.052a.557.557 0 0 1-.157.052l.01.063c-.1.01-.178.016-.272.037a6.962 6.962 0 0 0-.795.177c-.35.094-.695.21-1.02.361a1.834 1.834 0 0 0-.438.272c-.126.11-.225.256-.309.413-.246.476-.366 1.046-.617 1.527-.523 1.166-.816 2.436-.957 3.707l-.078-.084c3.796-.015 9.286.006 13.145.026Z"/><path fill="#000" d="M9.835 14.38c-.183.051-.821-.613-.952-.728-.12.136-.967 1.093-1.385 1.03-.46-.068-1.637-.857-2.233-2.096-.33-.68-.34-1.093-.303-1.318.015-.104.047-.172.062-.209.053-.12.43-.586.523-.58v.005c.047.502.21.988.481 1.412.335.517.863 1.14 1.6 1.438 1.198.486 1.82.005 1.925-.534.068-.345-.053-.753-.163-.936a.411.411 0 0 1-.125-.209l-.042-.172c.094-.021.183-.048.277-.074.026-.01.058-.015.084-.026.016.021.037.042.052.063.22.25.45.596.575 1.182.21.935-.172 1.688-.376 1.751Z"/><path fill="#000" d="M8.863 14.316a.126.126 0 1 0 0-.25.126.126 0 0 0 0 .25Zm.041.492a.126.126 0 1 0 0-.25.126.126 0 0 0 0 .25Zm-3.357-4.329s1.69-.523 4.042.899c0 0 .649 1.746.246 2.013-.403.267-1.668.293-2.552 0-.889-.287-2.028-1.725-1.736-2.912Z"/><path fill="#fff" d="M9.569 12.842c-.11.538-.821.862-2.019.376-1.244-.502-1.783-1.7-1.919-2.055.738-1.38.225-2.337.225-2.337 1.7-.146 3.184 1.84 3.184 1.84l.23.984a.395.395 0 0 0 .126.209c.11.193.24.638.173.983Z"/><path fill="#000" d="M5.605 11.18c.1-.152.162-.33.204-.503.079-.36.105-.727.11-1.093v-.136a1.542 1.542 0 0 0-.115-.402c-.068-.168.178-.272.256-.105.01.021.01.058.01.079.016.71.048 1.626-.402 2.217-.031.031-.094-.016-.063-.058Zm3.493-.524a.23.23 0 0 1 .115.172c.031.126.02.262.052.393.026.125.105.245.126.376.026.136.104.424.136.565a.057.057 0 0 1-.047.073.06.06 0 0 1-.053-.01c-.068-.058-.099-.115-.14-.189a1.888 1.888 0 0 1-.158-.381c-.036-.126-.02-.262-.052-.393-.026-.125-.1-.245-.125-.376a.255.255 0 0 1 .026-.21c.031-.03.083-.041.12-.02Z"/><path fill="#000" d="M9.474 12.036c-.998-.052-1.814-.366-2.609-1.783.67.591 1.46.816 2.29.92l.11.482c.021.083.147.33.21.381Z"/><path fill="#000" d="M9.432 11.843c.178.335.283.753.173 1.124-.084.262-.324.455-.586.528-.606.162-1.307-.094-1.845-.381-.664-.372-1.156-.994-1.47-1.674-.02-.052.053-.094.084-.041.11.22.235.434.377.627.14.199.303.382.486.544a3.01 3.01 0 0 0 1.976.779c.743-.021 1.025-.413.853-1.135a1.227 1.227 0 0 0-.126-.334c-.031-.042.047-.09.078-.037Z"/><path fill="#fff" d="M11.456 5.563c.094.44.141.795-.115 1.966-.25 1.166.36 1.407-1.087 3.274-.591.763-2.024.548-3.185-.241-.392-.267-.56-.952-.852-1.438-.23-.382-.335.016-.638-.314-.413-.45-.91-1.354-.664-2.954.397-2.593 2.452-2.897 3.974-2.609 1.532.293 2.316 1.16 2.567 2.316Z"/><path fill="#000" d="M5.84 9.276c-.12-.204-.277-.382-.423-.57a3.208 3.208 0 0 1-.35-.628c-.623-1.526-.382-3.675 1.145-4.575.632-.366 1.396-.455 2.107-.397 1.521.11 2.917.81 3.247 2.42.178.712-.063 1.444-.199 2.14-.063.344-.01.7-.016 1.056-.005.36-.104.721-.24 1.056-.084.23-.23.434-.382.622-.25.303-.502.612-.82.847a.709.709 0 0 1-.293.089 3.434 3.434 0 0 1-.732.031c-.963-.042-1.993-.507-2.38-1.438-.015-.036.037-.062.058-.03.502.794 1.422 1.186 2.337 1.238.283.016.57.01.847-.047.136-.068.256-.188.371-.298.283-.282.57-.585.774-.93.246-.466.382-.973.34-1.501a2.994 2.994 0 0 1 .032-.717c.041-.235.094-.46.125-.7a5.25 5.25 0 0 0 .047-.696c-.026-.674-.246-1.37-.674-1.892-.947-1.177-3.185-1.485-4.445-.68-.795.491-1.166 1.412-1.286 2.306-.183 1.072-.13 2.128.721 2.907l.251.261c.1.115-.078.251-.162.126Z"/><path fill="#fff" d="M6.457 7.613s-.162-.784-.925-.69c-.659.084-.889 1.663.606 2.102"/><path fill="#000" d="M6.07 8.34a.39.39 0 0 1-.209-.324c.006-.105.021-.225-.005-.33-.015-.099-.12-.125-.198-.12-.084.016-.136.12-.152.204l-.005.026c-.006.026-.047.026-.058 0-.068-.204.084-.428.303-.402.309.02.35.345.293.59-.031.105.01.2.068.288l.01.016c.027.031-.015.073-.046.052Zm4.184-1.281c.078.37.224.716.407 1.04.162.398-.256.774-.627.758-.042 0-.047-.057-.01-.068.235-.073.45-.23.486-.47a.268.268 0 0 0-.042-.199c-.173-.324-.277-.695-.251-1.061 0-.026.037-.026.037 0Z"/><path fill="#000" d="M6.431 7.618c-.12-.308-.381-.6-.732-.596-.031-.005-.083.006-.115.006a.354.354 0 0 0-.23.099c-.334.335-.277.925-.005 1.297.094.13.214.245.35.34.136.094.288.167.45.23.037.01.021.068-.016.062-.35-.073-.685-.245-.915-.533-.355-.429-.428-1.145-.005-1.563a.557.557 0 0 1 .356-.147c.042 0 .104-.01.146 0 .22.01.429.12.565.293a.97.97 0 0 1 .209.502c0 .031-.047.042-.058.01ZM9.856 9.38c-.334.32-.967.063-1.134-.324-.021-.047.03-.088.073-.068.089.048.167.095.25.131.241.11.492.199.759.173.052-.01.089.052.052.089ZM8.303 7.592a.216.216 0 0 1-.209-.235L8.1 7.21a.216.216 0 0 1 .236-.209c.125.006.22.11.209.236l-.005.146a.223.223 0 0 1-.236.21Zm2.202.078a.21.21 0 0 1-.2-.219l.006-.136a.21.21 0 0 1 .22-.199.21.21 0 0 1 .198.22l-.005.136a.21.21 0 0 1-.22.199Z"/><path fill="#000" d="M8.774 7.31c-.173-.115-.361-.194-.57-.152-.068.01-.136.031-.178.078-.016.021-.052.016-.052-.015.005-.105.094-.173.177-.215a.528.528 0 0 1 .534.042c.052.032.23.225.136.267-.021.01-.032.005-.047-.005Zm1.495.026c0-.22.272-.298.44-.22a.338.338 0 0 1 .188.225c.01.032-.037.058-.058.032-.089-.105-.24-.157-.36-.094-.037.02-.043.036-.053.057 0 .105-.152.1-.157 0Zm-1.244-.889c.11.037.22-.063.199-.183a.291.291 0 0 0-.09-.172c-.156-.142-.805-.267-1.197-.084-.345.167.586.272 1.088.44Zm1.563.083c-.089.032-.183-.062-.167-.172a.252.252 0 0 1 .068-.157c.125-.125.554-.225.826-.031.235.162-.32.209-.727.36Z"/><path fill="#000" d="M11.88 4.764c.355-.309.878-.774.34-1.423-.539-.648-1.533-.397-1.533-.397s.21-.596-.37-.81c-.701-.257-2.688.517-2.688.517-.147-.005-.288-.01-.419-.01C5.495 2.604 5 3.686 4.978 4.659c0 0-.58.194-.727 1.119-.047.298-.094.68.02 1.14.31 1.255 1.14 2.128 1.669 2.572.198-.146-.152-.35-.126-.59-1.134-.555-.889-1.898-.282-1.977.465-.057.711.214.826.434.047.063-.58-3.435 3.038-2.29.716.225 1.454.423 1.956.063.057.11.094.24.104.434 0 0 .873-.34.743-.696-.042-.12-.32-.104-.32-.104Z"/></g></svg>