<svg width="16" height="16" viewBox="0 0 16 16" fill="none" xmlns="http://www.w3.org/2000/svg">
<path d="M0 0H16V16H0V0Z" fill="#FFFF00"/>
<path d="M7.888 4.83733C8.22933 4.83733 8.50667 4.912 8.72 5.06133C8.93333 5.2 9.088 5.38133 9.184 5.60533C9.29067 5.82933 9.344 6.064 9.344 6.30933C9.344 6.704 9.22667 7.02933 8.992 7.28533C8.768 7.53067 8.46933 7.65333 8.096 7.65333C7.72267 7.65333 7.42933 7.56267 7.216 7.38133C7.01333 7.18933 6.912 6.93867 6.912 6.62933C6.912 6.33067 6.976 6.08533 7.104 5.89333C7.24267 5.69067 7.41333 5.52 7.616 5.38133C7.46667 5.33867 7.31733 5.344 7.168 5.39733C6.96533 5.42933 6.77333 5.51467 6.592 5.65333C6.41067 5.78133 6.256 5.94667 6.128 6.14933C6 6.34133 5.89867 6.55467 5.824 6.78933C5.74933 7.01333 5.712 7.232 5.712 7.44533V11.6853C5.712 12.1973 5.83467 12.544 6.08 12.7253C6.336 12.9067 6.71467 12.9973 7.216 12.9973V13.3333C6.97067 13.3227 6.61333 13.312 6.144 13.3013C5.67467 13.28 5.184 13.2693 4.672 13.2693C4.24533 13.2693 3.81333 13.28 3.376 13.3013C2.93867 13.312 2.608 13.3227 2.384 13.3333V12.9973C2.75733 12.9973 3.01867 12.9173 3.168 12.7573C3.328 12.5973 3.408 12.2933 3.408 11.8453V6.80533C3.408 6.32533 3.33333 5.97333 3.184 5.74933C3.04533 5.51467 2.77867 5.39733 2.384 5.39733V5.06133C2.72533 5.09333 3.056 5.10933 3.376 5.10933C3.824 5.10933 4.24 5.09333 4.624 5.06133C5.01867 5.01867 5.38133 4.96 5.712 4.88533V6.37333C5.84 6.08533 6.01067 5.824 6.224 5.58933C6.43733 5.35467 6.68267 5.17333 6.96 5.04533C7.23733 4.90667 7.54667 4.83733 7.888 4.83733Z" fill="#19141B"/>
<path d="M11.6438 11.0933C12.0598 11.0933 12.3904 11.2053 12.6358 11.4293C12.8811 11.6427 13.0038 11.9413 13.0038 12.3253C13.0038 12.7093 12.8811 13.0133 12.6358 13.2373C12.3904 13.4507 12.0598 13.5573 11.6438 13.5573C11.2278 13.5573 10.8971 13.4507 10.6518 13.2373C10.4064 13.0133 10.2838 12.7093 10.2838 12.3253C10.2838 11.9413 10.4064 11.6427 10.6518 11.4293C10.8971 11.2053 11.2278 11.0933 11.6438 11.0933Z" fill="#19141B"/>
</svg>
