<svg width="16" height="16" viewBox="0 0 16 16" fill="none" xmlns="http://www.w3.org/2000/svg">
<circle cx="8" cy="8" r="8" fill="white"/>
<mask id="mask0_211_258" style="mask-type:alpha" maskUnits="userSpaceOnUse" x="0" y="0" width="16" height="16">
<circle cx="8.00063" cy="7.97377" r="7.97377" fill="#D9D9D9"/>
</mask>
<g mask="url(#mask0_211_258)">
<path d="M12.3451 14.5565C12.3085 14.5826 12.2667 14.6088 12.2301 14.6349C12.1883 14.6611 12.1517 14.6872 12.1099 14.7081C12.0732 14.729 12.0419 14.7499 12.0053 14.7709C12 14.7761 11.9948 14.7761 11.9896 14.7813C11.8693 14.8545 11.7438 14.9225 11.6183 14.9852C11.5817 15.0062 11.5399 15.0271 11.5033 15.0428C11.5033 15.0428 11.4981 15.048 11.4929 15.048C11.451 15.0689 11.4092 15.0898 11.3674 15.1107C11.2837 15.1526 11.1948 15.1892 11.1112 15.2258C11.0693 15.2467 11.0223 15.2624 10.9804 15.2781C10.9386 15.2937 10.8916 15.3147 10.8497 15.3303C10.8079 15.346 10.7608 15.3669 10.719 15.3826C10.719 15.3826 10.719 15.3826 10.7138 15.3826C10.6719 15.3983 10.6249 15.414 10.5831 15.4297C10.4889 15.4611 10.3896 15.4924 10.2955 15.5238C10.2641 15.5343 10.2275 15.5447 10.1961 15.5552C10.0968 15.5865 9.99743 15.6127 9.89809 15.6336C9.86148 15.6441 9.82488 15.6493 9.78305 15.6597C9.68894 15.6807 9.58959 15.7016 9.49547 15.7225C9.47456 15.7277 9.45887 15.7277 9.43795 15.733C9.40658 15.7382 9.36998 15.7434 9.33861 15.7486C9.29155 15.7539 9.24972 15.7643 9.20266 15.7696C9.18175 15.7748 9.16083 15.7748 9.13992 15.78C9.11377 15.7852 9.0824 15.7905 9.05103 15.7905C8.96737 15.8009 8.87848 15.8114 8.79482 15.8218C8.76867 15.8271 8.7373 15.8271 8.71116 15.8323H8.70593C8.66933 15.8375 8.63273 15.8375 8.59612 15.8428C8.55952 15.848 8.52292 15.848 8.48632 15.848C8.46541 15.848 8.43926 15.8532 8.41835 15.8532C8.37652 15.8532 8.33992 15.8584 8.30331 15.8584C8.25103 15.8584 8.20397 15.8637 8.15168 15.8637C8.09939 15.8637 8.05233 15.8637 8.00005 15.8637C7.96345 15.8637 7.92684 15.8637 7.89024 15.8637C5.68371 15.8323 3.70201 14.8964 2.28501 13.4114C2.28501 13.4114 2.28501 13.4062 2.27979 13.4062C2.12292 13.265 2.25887 12.512 2.89155 12.0362C3.68632 11.4349 5.58959 11.0584 5.58959 11.0584C5.58959 11.0584 6.32684 10.9382 9.06148 11.5081C10.6615 11.8428 11.8798 12.329 12.5595 13.6467C12.7007 13.9186 12.8419 14.3369 12.3451 14.5565Z" fill="white"/>
<path d="M9.07695 11.4508C10.0809 11.6547 11.1528 11.8743 11.9789 12.5384C12.256 12.7632 12.439 13.0926 12.5907 13.4116C12.6639 13.5685 12.7371 13.7305 12.7946 13.9031C12.826 14.0181 12.873 14.1488 12.8469 14.2848C12.8417 14.3214 12.8103 14.3685 12.7841 14.3946C12.6639 14.5149 12.5332 14.5881 12.4024 14.6822C11.6338 15.2155 10.7502 15.592 9.83512 15.7907C7.7959 16.2351 5.58937 15.89 3.7959 14.8181C3.19983 14.4573 2.65081 14.0181 2.18022 13.5005C2.12793 13.4377 2.12793 13.3332 2.12793 13.2652C2.13316 13.1083 2.17499 12.9567 2.22728 12.8155C2.35277 12.4913 2.51486 12.1671 2.79198 11.9423C2.99067 11.8064 3.20505 11.6913 3.42466 11.5972C4.11486 11.3044 4.84166 11.1005 5.58937 11.0168C5.65211 11.0116 5.66257 11.1005 5.59982 11.1109C4.88349 11.2573 4.17237 11.477 3.50832 11.775C3.2678 11.8953 3.01159 11.9998 2.81813 12.1881C2.63512 12.3868 2.5044 12.6325 2.39983 12.8835C2.33185 13.0351 2.28479 13.2756 2.30571 13.3959C2.63512 13.7881 3.02205 14.1332 3.44035 14.4312C5.73054 16.0312 9.20767 16.1358 11.6443 14.8024C11.8639 14.6822 12.0783 14.5462 12.2822 14.4051C12.3815 14.3371 12.4861 14.2796 12.5645 14.2011C12.5698 14.1959 12.5645 14.2011 12.5645 14.2064C12.5645 14.2116 12.5593 14.2168 12.5593 14.2168C12.5645 14.1541 12.5436 14.0704 12.5175 13.9868C12.4234 13.6835 12.2717 13.3645 12.1096 13.0874C11.8534 12.6743 11.4194 12.4129 10.9802 12.2038C10.6769 12.0626 10.358 11.9528 10.0338 11.8482C9.70963 11.7436 9.38022 11.6547 9.05081 11.5763C8.96715 11.5554 8.99329 11.4351 9.07695 11.4508Z" fill="black"/>
<path d="M14.081 17.799H0.857422C0.857422 17.799 1.0718 15.6448 1.88749 13.9245C2.18553 13.2971 2.28487 12.3768 2.87572 11.9742C3.48226 11.5611 4.77376 11.2317 5.22344 11.1794C5.47442 11.1481 5.4169 11.1271 5.59468 11.0801C5.65219 11.2369 6.23259 12.7742 7.62344 13.3389C8.82082 13.8252 9.53193 13.501 9.64174 12.9624C9.70971 12.6173 9.49533 12.0526 9.38553 11.8696C9.32278 11.8173 9.28095 11.7389 9.26004 11.6605L9.21821 11.4879C9.31233 11.467 9.40121 11.4409 9.49533 11.4147C9.54239 11.4252 9.59468 11.4199 9.63651 11.4461C10.0757 11.6866 11.3986 12.0265 12.0888 12.7533C12.3607 13.0356 12.7842 14.0396 12.8522 14.6932C13.0457 16.4866 14.081 17.799 14.081 17.799Z" fill="white"/>
<path d="M14.1541 17.8305C10.2326 17.8409 4.72667 17.888 0.862621 17.8723C0.815562 17.8723 0.778961 17.8305 0.78419 17.7834C0.831248 17.4122 0.893993 17.0514 0.967196 16.6854C1.16066 15.6867 1.45347 14.7037 1.89269 13.7886C2.07046 13.3599 2.15935 12.9102 2.37373 12.4919C2.49922 12.2409 2.68746 12.0004 2.93844 11.8592C3.34105 11.6187 3.7855 11.4671 4.22994 11.3311C4.49661 11.2527 4.7685 11.1795 5.0404 11.1272C5.17635 11.0958 5.31229 11.1011 5.43778 11.0488C5.50576 11.0226 5.63648 10.9442 5.67831 11.0435C6.06001 12.0318 6.79726 12.9677 7.82733 13.3181C8.36066 13.5115 9.28615 13.6736 9.55805 13.02C9.64171 12.7743 9.56327 12.5076 9.49007 12.2618C9.44824 12.1364 9.39595 12.0056 9.33321 11.9011L9.3489 11.9167C9.25478 11.8383 9.20249 11.7128 9.1868 11.5978L9.16066 11.4932C9.1502 11.4514 9.17635 11.4096 9.21818 11.3991C9.31229 11.3834 9.40641 11.352 9.50053 11.3259C9.55282 11.3259 9.63648 11.3364 9.70445 11.373C10.2796 11.6396 10.9332 11.8331 11.4822 12.1677C11.7907 12.3507 12.1045 12.5651 12.3031 12.8736C12.6692 13.4854 12.9045 14.1808 12.9724 14.8867C13.1188 15.8958 13.5267 16.8632 14.1123 17.6945L14.1332 17.7207L14.1437 17.7311L14.1489 17.7364C14.1489 17.7364 14.1489 17.7311 14.1541 17.7468C14.1594 17.7782 14.1594 17.8148 14.1541 17.8305ZM14.0129 17.7625C14.0025 17.7782 14.0025 17.8148 14.0129 17.8305C14.0234 17.8409 14.0182 17.8357 14.0182 17.8357L14.0129 17.8305L14.0025 17.8148L13.9816 17.7886C13.6522 17.2867 13.3803 16.7481 13.1816 16.1886C13.0247 15.7756 12.9097 15.3468 12.8469 14.9076C12.826 14.7507 12.7999 14.5416 12.7633 14.39C12.643 13.888 12.4495 13.386 12.1724 12.952C12.0835 12.8109 11.9528 12.7011 11.8221 12.5965C11.409 12.2828 10.9228 12.0893 10.4417 11.9011L9.9502 11.7181C9.78811 11.6553 9.59465 11.5873 9.4953 11.488H9.53713C9.44301 11.5194 9.3489 11.5455 9.25478 11.5664L9.31229 11.4723L9.33844 11.5769C9.35935 11.671 9.38027 11.7547 9.45347 11.8174C9.4587 11.8226 9.46393 11.8279 9.46916 11.8331C9.61033 12.0893 9.69399 12.356 9.73582 12.6435C9.82471 13.1403 9.51099 13.5324 9.02994 13.6266C8.36589 13.7573 7.57112 13.4697 7.0221 13.0984C6.3319 12.6122 5.83517 11.8906 5.5319 11.1115L5.62602 11.1586C5.57896 11.1743 5.54759 11.19 5.50053 11.2109C5.45347 11.237 5.39595 11.2527 5.34367 11.2632C5.3489 11.2945 5.33321 11.2004 5.35412 11.3259C5.25478 11.3364 5.17635 11.3416 5.08223 11.3625C4.81556 11.4043 4.5489 11.4671 4.28746 11.5403C3.93713 11.6344 3.59203 11.7494 3.26785 11.9011C3.10576 11.9795 2.9489 12.0632 2.82863 12.173C2.70314 12.2828 2.6038 12.4292 2.52014 12.586C2.27439 13.0618 2.15412 13.6318 1.90314 14.1128C1.38027 15.2788 1.08746 16.5494 0.946281 17.82L0.86785 17.7364C4.66393 17.7207 10.1541 17.7416 14.0129 17.7625Z" fill="black"/>
<path d="M9.83495 14.3792C9.65194 14.4315 9.01403 13.7674 8.88331 13.6524C8.76305 13.7884 7.91599 14.7452 7.49769 14.6825C7.03756 14.6145 5.86109 13.825 5.26501 12.5857C4.9356 11.906 4.92515 11.4929 4.96175 11.2681C4.97743 11.1635 5.00881 11.0956 5.02449 11.059C5.07678 10.9387 5.45325 10.4733 5.54737 10.4786V10.4838C5.59443 10.9857 5.75652 11.472 6.02841 11.8956C6.36305 12.4132 6.89116 13.0354 7.62841 13.3335C8.8258 13.8197 9.44802 13.3387 9.5526 12.8001C9.62057 12.455 9.50031 12.0472 9.3905 11.8642C9.32776 11.8119 9.28593 11.7335 9.26501 11.655L9.22318 11.4825C9.3173 11.4616 9.40619 11.4354 9.50031 11.4093C9.52645 11.3988 9.55782 11.3936 9.58397 11.3831C9.59965 11.404 9.62057 11.425 9.63626 11.4459C9.85586 11.6969 10.0859 12.042 10.2114 12.6276C10.4206 13.5635 10.0389 14.3165 9.83495 14.3792Z" fill="black"/>
<path d="M8.86279 14.3164C8.9321 14.3164 8.98829 14.2602 8.98829 14.1909C8.98829 14.1216 8.9321 14.0654 8.86279 14.0654C8.79349 14.0654 8.7373 14.1216 8.7373 14.1909C8.7373 14.2602 8.79349 14.3164 8.86279 14.3164Z" fill="black"/>
<path d="M8.9043 14.8081C8.97361 14.8081 9.02979 14.7519 9.02979 14.6826C9.02979 14.6133 8.97361 14.5571 8.9043 14.5571C8.83499 14.5571 8.77881 14.6133 8.77881 14.6826C8.77881 14.7519 8.83499 14.8081 8.9043 14.8081Z" fill="black"/>
<path d="M5.54735 10.4786C5.54735 10.4786 7.23624 9.95577 9.58918 11.378C9.58918 11.378 10.2375 13.1244 9.83493 13.3911C9.43232 13.6577 8.16696 13.6839 7.2833 13.3911C6.39441 13.1035 5.25454 11.6656 5.54735 10.4786Z" fill="black"/>
<path d="M9.5686 12.8418C9.4588 13.3803 8.74769 13.7045 7.5503 13.2182C6.30586 12.7163 5.7673 11.5189 5.63135 11.1633C6.3686 9.78293 5.85618 8.82607 5.85618 8.82607C7.55553 8.67967 9.0405 10.6666 9.0405 10.6666L9.27056 11.6496C9.29148 11.7333 9.33331 11.8065 9.39605 11.8588C9.50586 12.0522 9.63658 12.4967 9.5686 12.8418Z" fill="white"/>
<path d="M5.60523 11.1791C5.70458 11.0275 5.76732 10.8497 5.80915 10.6772C5.88758 10.3164 5.91373 9.95035 5.91896 9.58434V9.44839C5.90327 9.31244 5.85621 9.17127 5.80392 9.04578C5.73595 8.87846 5.9817 8.77388 6.06013 8.9412C6.07059 8.96212 6.07059 8.99872 6.07059 9.01963C6.08628 9.73075 6.11765 10.6458 5.66798 11.2366C5.6366 11.268 5.57386 11.2209 5.60523 11.1791Z" fill="black"/>
<path d="M9.09797 10.6559C9.1764 10.703 9.20255 10.7657 9.21301 10.8285C9.24438 10.9539 9.23392 11.0899 9.26529 11.2206C9.29144 11.3461 9.36987 11.4664 9.39078 11.5971C9.41693 11.733 9.49536 12.0206 9.52673 12.1618C9.53719 12.1932 9.51627 12.2298 9.47967 12.235C9.45876 12.2402 9.44307 12.235 9.42738 12.2245C9.35941 12.167 9.32804 12.1095 9.28621 12.0363C9.21823 11.9108 9.17118 11.7958 9.12935 11.6546C9.09274 11.5291 9.10843 11.3932 9.07706 11.2624C9.05091 11.1369 8.97771 11.0167 8.95157 10.886C8.93588 10.8232 8.93065 10.7552 8.97771 10.6768C9.00908 10.6454 9.06137 10.635 9.09797 10.6559Z" fill="black"/>
<path d="M9.47438 12.0364C8.47569 11.9841 7.66001 11.6704 6.86523 10.2534C7.53452 10.8443 8.32406 11.0691 9.15543 11.1737L9.26523 11.6547C9.28615 11.7384 9.41164 11.9841 9.47438 12.0364Z" fill="black"/>
<path d="M9.43249 11.843C9.61027 12.1776 9.71484 12.5959 9.60504 12.9672C9.52138 13.2286 9.28085 13.4221 9.01942 13.4953C8.41288 13.6574 7.71223 13.4012 7.17366 13.1136C6.50961 12.7423 6.01811 12.1201 5.70438 11.4404C5.68347 11.3881 5.75667 11.3463 5.78804 11.3985C5.89785 11.6181 6.02334 11.8325 6.16451 12.026C6.30569 12.2247 6.46778 12.4077 6.65079 12.5698C7.18412 13.0508 7.90569 13.3489 8.62726 13.3489C9.36974 13.328 9.6521 12.9358 9.47955 12.2142C9.4534 12.0992 9.41157 11.9789 9.35406 11.8796C9.32268 11.8378 9.40112 11.7907 9.43249 11.843Z" fill="black"/>
<path d="M11.4562 5.56331C11.5503 6.00253 11.5974 6.35808 11.3411 7.52932C11.0902 8.69534 11.7019 8.93586 10.2536 10.8025C9.66271 11.5659 8.23003 11.3515 7.06925 10.562C6.67709 10.2953 6.50977 9.61037 6.21696 9.12409C5.98689 8.74239 5.88232 9.13978 5.57905 8.81037C5.16598 8.3607 4.66925 7.45612 4.915 5.85612C5.31238 3.26266 7.36729 2.95939 8.88885 3.24697C10.4209 3.53978 11.2052 4.40776 11.4562 5.56331Z" fill="white"/>
<path d="M5.84037 9.27585C5.72011 9.07192 5.56324 8.89415 5.41684 8.70591C5.27566 8.51245 5.16063 8.29807 5.06651 8.07846C4.44429 6.55166 4.68481 4.40264 6.21161 3.5033C6.84429 3.13728 7.60769 3.04839 8.3188 3.10591C9.84037 3.21572 11.2364 3.91637 11.5659 5.52683C11.7436 6.23794 11.5031 6.96996 11.3672 7.66539C11.3044 8.01049 11.3567 8.36604 11.3515 8.7216C11.3463 9.08238 11.2469 9.44317 11.111 9.77781C11.0273 10.0079 10.8809 10.2118 10.7293 10.4C10.4783 10.7033 10.2273 11.0118 9.90834 11.2471C9.83514 11.2994 9.70442 11.3255 9.61553 11.336C9.36978 11.3726 9.12926 11.383 8.88351 11.3673C7.92141 11.3255 6.89135 10.8602 6.50442 9.92944C6.48874 9.89284 6.54102 9.8667 6.56194 9.89807C7.0639 10.6928 7.98416 11.085 8.89919 11.1373C9.18155 11.153 9.46913 11.1477 9.74625 11.0902C9.8822 11.0223 10.0025 10.902 10.1175 10.7922C10.3998 10.5098 10.6874 10.2066 10.8913 9.86147C11.1371 9.39611 11.273 8.88892 11.2312 8.36081C11.2208 8.12552 11.2155 7.87977 11.2626 7.64447C11.3044 7.40918 11.3567 7.18434 11.3881 6.94382C11.4195 6.71375 11.4351 6.47846 11.4351 6.24839C11.409 5.57389 11.1894 4.87846 10.7606 4.35558C9.81423 3.17911 7.57632 2.87062 6.31619 3.67585C5.52141 4.16735 5.15017 5.08761 5.02991 5.98173C4.8469 7.05362 4.89919 8.10983 5.75148 8.88892L6.00246 9.15036C6.10181 9.26539 5.92403 9.40134 5.84037 9.27585Z" fill="black"/>
<path d="M6.45734 7.61308C6.45734 7.61308 6.29525 6.82876 5.53185 6.92288C4.87303 7.00654 4.64296 8.58563 6.13839 9.02484" fill="white"/>
<path d="M6.0706 8.34009C5.95034 8.27212 5.86668 8.15708 5.86145 8.01591C5.86668 7.91133 5.88237 7.79107 5.85622 7.68649C5.84054 7.58715 5.73596 7.561 5.65753 7.56623C5.57387 7.58192 5.52158 7.6865 5.5059 7.77016C5.5059 7.77538 5.50067 7.79107 5.50067 7.7963C5.49544 7.82244 5.45361 7.82244 5.44315 7.7963C5.37518 7.59238 5.52681 7.36754 5.74642 7.39368C6.05492 7.4146 6.09675 7.73878 6.03923 7.98453C6.00786 8.08911 6.04969 8.18323 6.1072 8.27212L6.11766 8.2878C6.1438 8.31917 6.10197 8.361 6.0706 8.34009Z" fill="black"/>
<path d="M10.2536 7.05867C10.332 7.42991 10.4784 7.77501 10.6614 8.09919C10.8235 8.49658 10.4052 8.87305 10.034 8.85736C9.99213 8.85736 9.9869 8.79985 10.0235 8.78939C10.2588 8.71619 10.4732 8.55932 10.5098 8.3188C10.5255 8.2456 10.5045 8.18285 10.4679 8.12011C10.2954 7.79593 10.1908 7.42468 10.217 7.05867C10.217 7.03253 10.2536 7.03253 10.2536 7.05867Z" fill="black"/>
<path d="M6.43143 7.61847C6.31117 7.30997 6.04973 7.01716 5.69941 7.02239C5.66803 7.01716 5.61575 7.02762 5.58437 7.02762C5.49548 7.03285 5.42228 7.06422 5.35431 7.12697C5.01967 7.46161 5.07718 8.05246 5.34908 8.4237C5.4432 8.55442 5.56346 8.66945 5.69941 8.76357C5.83535 8.85769 5.98699 8.93089 6.14908 8.99363C6.18568 9.00409 6.16999 9.06161 6.13339 9.05638C5.78307 8.98318 5.44843 8.81063 5.21836 8.52305C4.8628 8.09429 4.7896 7.37795 5.21313 6.95965C5.30725 6.87599 5.43797 6.81324 5.56869 6.81324C5.61052 6.81324 5.67326 6.80278 5.71509 6.81324C5.9347 6.8237 6.14385 6.9335 6.2798 7.10605C6.40006 7.25246 6.46803 7.43023 6.48895 7.60801C6.48895 7.63939 6.44189 7.64984 6.43143 7.61847Z" fill="black"/>
<path d="M9.8562 9.3806C9.52156 9.69955 8.88888 9.44334 8.72156 9.05642C8.70064 9.00936 8.75293 8.96753 8.79476 8.98844C8.88365 9.0355 8.96208 9.08256 9.04574 9.11916C9.28626 9.22896 9.53724 9.31785 9.80391 9.29171C9.8562 9.28125 9.8928 9.344 9.8562 9.3806Z" fill="black"/>
<path d="M8.30321 7.59213C8.17772 7.5869 8.0836 7.48233 8.09406 7.35684L8.09928 7.21043C8.10451 7.08494 8.20909 6.99082 8.33458 7.00128C8.46007 7.00651 8.55419 7.11109 8.54373 7.23658L8.5385 7.38298C8.53327 7.50324 8.4287 7.59736 8.30321 7.59213Z" fill="black"/>
<path d="M10.5046 7.67068C10.3895 7.66545 10.3007 7.5661 10.3059 7.45107L10.3111 7.31512C10.3163 7.20009 10.4157 7.1112 10.5307 7.11643C10.6458 7.12166 10.7346 7.22101 10.7294 7.33604L10.7242 7.47199C10.719 7.58702 10.6196 7.67591 10.5046 7.67068Z" fill="black"/>
<path d="M8.77363 7.30963C8.60108 7.1946 8.41285 7.11616 8.2037 7.15799C8.13572 7.16845 8.06775 7.18937 8.02592 7.23642C8.01023 7.25734 7.97363 7.25211 7.97363 7.22074C7.97886 7.11616 8.06775 7.04819 8.15141 7.00636C8.3135 6.9227 8.53834 6.93839 8.68474 7.04819C8.73703 7.07956 8.91481 7.27303 8.82069 7.31486C8.79978 7.32531 8.78932 7.32009 8.77363 7.30963Z" fill="black"/>
<path d="M10.269 7.33618C10.269 7.11658 10.5409 7.03814 10.7083 7.11658C10.8024 7.15841 10.8704 7.24207 10.8965 7.34141C10.907 7.37278 10.8599 7.39893 10.839 7.37278C10.7501 7.26821 10.5985 7.21592 10.4782 7.27867C10.4416 7.29958 10.4364 7.31527 10.4259 7.33618C10.4259 7.44076 10.2743 7.43553 10.269 7.33618Z" fill="black"/>
<path d="M9.02482 6.44709C9.13462 6.48369 9.24442 6.38434 9.22351 6.26408C9.21305 6.20134 9.18691 6.13859 9.13462 6.09153C8.97776 5.95036 8.32939 5.82487 7.93723 6.00787C7.59214 6.17519 8.52286 6.27977 9.02482 6.44709Z" fill="black"/>
<path d="M10.588 6.53051C10.4991 6.56188 10.405 6.46776 10.4207 6.35796C10.4259 6.30044 10.4468 6.24293 10.4886 6.2011C10.6141 6.07561 11.0429 5.97626 11.3148 6.16972C11.5501 6.33182 10.9958 6.37887 10.588 6.53051Z" fill="black"/>
<path d="M11.8797 4.76361C12.2352 4.45511 12.7581 3.98975 12.2195 3.34139C11.681 2.69302 10.6875 2.944 10.6875 2.944C10.6875 2.944 10.8967 2.34792 10.3163 2.13354C9.61561 1.87733 7.62868 2.65119 7.62868 2.65119C7.48228 2.64596 7.3411 2.64073 7.21038 2.64073C5.49535 2.60413 4.99862 3.68648 4.9777 4.65903C4.9777 4.65903 4.39731 4.8525 4.25091 5.77799C4.20385 6.07603 4.15679 6.45773 4.27182 6.91786C4.58032 8.17276 5.41169 9.04596 5.9398 9.49041C6.13849 9.344 5.78816 9.14008 5.81431 8.89956C4.67967 8.34531 4.92542 7.00152 5.53195 6.92308C5.99731 6.86557 6.24306 7.13746 6.3581 7.35707C6.40516 7.41982 5.7777 3.92178 9.39601 5.06688C10.1123 5.29171 10.8496 5.49041 11.3516 5.12962C11.4091 5.23942 11.4457 5.37014 11.4561 5.56361C11.4561 5.56361 12.3293 5.22374 12.1986 4.86818C12.1568 4.74792 11.8797 4.76361 11.8797 4.76361Z" fill="black"/>
</g>
</svg>
